<?xml version="1.0" encoding="UTF-8" standalone="no"?>
<!DOCTYPE svg PUBLIC "-//W3C//DTD SVG 1.1//EN" "http://www.w3.org/Graphics/SVG/1.1/DTD/svg11.dtd">
<svg width="100%" height="100%" viewBox="0 0 512 512" version="1.1" xmlns="http://www.w3.org/2000/svg" xmlns:xlink="http://www.w3.org/1999/xlink" xml:space="preserve" xmlns:serif="http://www.serif.com/" style="fill-rule:evenodd;clip-rule:evenodd;stroke-linejoin:round;stroke-miterlimit:2;">
    <path d="M512,128L512,384C512,454.645 454.645,512 384,512L128,512C57.355,512 0,454.645 0,384L0,128C0,57.355 57.355,0 128,0L384,0C454.645,0 512,57.355 512,128Z" style="fill:rgb(92,148,179);"/>
    <g transform="matrix(2.320877,0,0,2.320877,-495.032102,-524.155861)">
        <path d="M323.598,263.47L340.48,315.427L395.111,315.427L350.914,347.538L367.795,399.494L323.598,367.383L279.402,399.494L296.283,347.538L252.086,315.427L306.717,315.427L323.598,263.47Z" style="fill:rgb(221,221,221);"/>
    </g>
    <g transform="matrix(1,0,0,1,0,-10.826675)">
        <circle cx="421.971" cy="218.737" r="21.298" style="fill:rgb(221,221,221);"/>
    </g>
    <g transform="matrix(1,0,0,1,-165.970757,-131.411488)">
        <circle cx="421.971" cy="218.737" r="21.298" style="fill:rgb(221,221,221);"/>
    </g>
    <g transform="matrix(1,0,0,1,-331.941513,-10.826675)">
        <circle cx="421.971" cy="218.737" r="21.298" style="fill:rgb(221,221,221);"/>
    </g>
    <g transform="matrix(1,0,0,1,-268.546325,184.283651)">
        <circle cx="421.971" cy="218.737" r="21.298" style="fill:rgb(221,221,221);"/>
    </g>
    <g transform="matrix(1,0,0,1,-63.395188,184.283651)">
        <circle cx="421.971" cy="218.737" r="21.298" style="fill:rgb(221,221,221);"/>
    </g>
</svg>
